<svg id="Layer_1" data-name="Layer 1" xmlns="http://www.w3.org/2000/svg" viewBox="0 0 10 10"><defs><style>.cls-1{fill:#fff;}</style></defs><title>facebook</title><path class="cls-1" d="M5.34,10H.45l0,0A.55.55,0,0,1,0,9.42Q0,5,0,.58A.59.59,0,0,1,0,.42.56.56,0,0,1,.6,0H9.48A.55.55,0,0,1,9.8.12a.67.67,0,0,1,.2.34V9.54a2.23,2.23,0,0,1-.11.24.59.59,0,0,1-.34.23H7V6H7a3.31,3.31,0,0,0,1.1.13c.08,0,.1,0,.11-.1q.08-.66.17-1.32c0-.07,0-.1-.08-.1H7c-.07,0-.08,0-.08-.09,0-.29,0-.57,0-.86a1.73,1.73,0,0,1,0-.31A.47.47,0,0,1,7.27,3a1.05,1.05,0,0,1,.27,0h.82c.05,0,.08,0,.08-.07,0-.41,0-.81,0-1.22,0,0,0-.06-.06-.07a7.13,7.13,0,0,0-1.46,0A1.77,1.77,0,0,0,6,1.9a1.8,1.8,0,0,0-.67,1.4c0,.4,0,.81,0,1.21,0,.11,0,.11-.1-.51H4V6H5V9.91C5.34,9.94,5.34,10,5.34,10Z" transform="translate(0 0)"/></svg>