<svg id="Layer_1" data-name="Layer 1" xmlns="http://www.w3.org/2000/svg" viewBox="0 0 10 10"><defs><style>.cls-1{fill:#fff;}</style></defs><title>instagram</title><path class="cls-1" d="M10,3a3.08,3.08,0,0,0-.39-1.56A2.88,2.88,0,0,0,8,.14,3,3,0,0,0,6.71,0,11.76,11.76,0,0,1,3.4,0,2.79,2.79,0,0,0,1.25.52,2.88,2.88,0,0,0,.09,2.18,2.66,2.66,0,0,0,0,2.73v4.5l0,.18A2.82,2.82,0,0,0,.35,8.48,2.9,2.9,0,0,0,1.71,9.74a2.76,2.76,0,0,0,.95.25,2.74,2.74,0,0,0,.75,0l3-.05A2.91,2.91,0,0,0,9.87,8,2.85,2.85,0,0,0,10,7.12C10,5.75,10,4.38,10,3ZM9.23,7.09A2.09,2.09,0,0,1,8.5,8.71a2,2,0,0,1-1,.49l-.37,0H2.88A2.13,2.13,0,0,1,.81,7.48a2.15,2.15,0,0,1,0-.38q0-2.1,0-4.2A2.13,2.13,0,0,1,2.92.77H7.14a2,2,0,0,1,1.61.78,2.06,2.06,0,0,1,.47,1.11,2.35,2.35,0,0,1,0,.26Q9.23,5,9.23,7.09Z" transform="translate(0 0)"/><path class="cls-1" d="M5,2.31A2.69,2.69,0,1,0,7.7,5,2.7,2.7,0,0,0,5,2.31ZM5,6.92A1.92,1.92,0,1,1,6.93,5,1.92,1.92,0,0,1,5,6.92Z" transform="translate(0 0)"/><circle class="cls-1" cx="7.89" cy="2.12" r="0.58" transform="translate(5.76 10) rotate(-89.9)"/></svg>