<svg id="Layer_1" data-name="Layer 1" xmlns="http://www.w3.org/2000/svg" viewBox="0 0 11.99 10"><defs><style>.cls-1{fill:#fff;}</style></defs><title>twitter</title><path class="cls-1" d="M.81.46A7,7,0,0,0,5.89,3.1c0-.16,0-.3,0-.44a2.37,2.37,0,0,1,.41-1.55A2.39,2.39,0,0,1,8.63,0,2.29,2.29,0,0,1,10,.7a.2.2,0,0,0,.22.06,4.89,4.89,0,0,0,1.3-.5l.15-.08a2.6,2.6,0,0,1-1,1.37A5.35,5.35,0,0,0,12,1.21c-.09.12-.17.24-.26.36a4.94,4.94,0,0,1-.87.85.17.17,0,0,0-.07.16A7.42,7.42,0,0,1,9.41,7.11,6.57,6.57,0,0,1,6.1,9.62a7.06,7.06,0,0,1-3.26.32A6.75,6.75,0,0,1,0,8.88,5,5,0,0,0,3.62,7.83,2.53,2.53,0,0,1,1.31,6.07,2.56,2.56,0,0,0,2.42,6,2.47,2.47,0,0,1,1,5.12,2.5,2.5,0,0,1,.45,3.53c.18.07.35.15.53.2a3.14,3.14,0,0,0,.55.09,2.62,2.62,0,0,1-1-1.54A2.55,2.55,0,0,1,.81.46Z" transform="translate(-0.01 0)"/></svg>